<svg xmlns="http://www.w3.org/2000/svg" xmlns:xlink="http://www.w3.org/1999/xlink" width="50" height="51" viewBox="0 0 50 51">
    <defs>
        <path id="a" d="M0 51h50V0H0z"/>
    </defs>
    <g fill="none" fill-rule="evenodd">
        <mask id="b" fill="#fff">
            <use xlink:href="#a"/>
        </mask>
        <path fill="#231F20" d="M13.27 13.386c-1.733.843-4.2 3.487-1.908 5.175 1.848 1.362 4.176 2.346 6.19 3.438.04.02.08.04.12.063-.231-1.242-.514-2.467-.96-3.602-.47-1.193-1.499-6.015-3.443-5.074zm22.24 26.416c1.733-.844 4.2-3.487 1.908-5.175-1.849-1.361-4.176-2.346-6.189-3.438-.041-.02-.082-.04-.121-.063.231 1.242.513 2.467.96 3.602.47 1.193 1.5 6.014 3.443 5.074zm-11.55-14.9c1.23.563 2.459 1.127 3.683 1.703-.31-2.246-.503-4.505-.507-6.717-.003-1.384 1.957-1.586 2.117-.183.305 2.651.722 5.305 1.236 7.921.025.127.047.257.072.384 1.138.562 2.268 1.14 3.382 1.741 2.713 1.464 7.866 2.973 7.197 7.16-.413 2.595-3.663 6.711-6.668 5.903-1.743-.47-2.906-1.723-3.638-3.392-.774-1.759-1.4-3.742-1.835-5.613a95.797 95.797 0 0 1-.842-4.042c-1.08-.453-2.17-.89-3.216-1.388a78.023 78.023 0 0 0-1.673-.768l-2.131-1.028c.31 2.246.503 4.505.507 6.717.003 1.384-1.957 1.586-2.116.183a101.327 101.327 0 0 0-1.237-7.921c-.025-.126-.047-.257-.072-.383a108.8 108.8 0 0 1-3.382-1.742c-2.713-1.464-7.867-2.973-7.197-7.16.413-2.595 3.663-6.712 6.668-5.902 1.744.47 2.906 1.722 3.638 3.39.774 1.76 1.4 3.743 1.835 5.614.306 1.326.59 2.677.842 4.043l3.336 1.48zM25 0C11.192 0 0 11.417 0 25.5S11.192 51 25 51s25-11.417 25-25.5S38.808 0 25 0z" mask="url(#b)"/>
    </g>
</svg>
