<svg xmlns="http://www.w3.org/2000/svg" xmlns:xlink="http://www.w3.org/1999/xlink" width="200" height="38" viewBox="0 0 200 38">
    <defs>
        <path id="a" d="M10.705.41V21.9H.19V.41h10.516z"/>
        <path id="c" d="M0 37.854h37.624V.004H0z"/>
    </defs>
    <g fill="none" fill-rule="evenodd">
        <path fill="#231F20" d="M47.809 31.159c0-.023.039-.075.118-.156.078-.082.169-.174.27-.278l.269-.279c.078-.08.118-.133.118-.156.65.556 1.201.891 1.652 1.007.449.117 1 .174 1.65.174.585 0 1.203-.15 1.855-.45a7.443 7.443 0 0 0 1.804-1.182 6.94 6.94 0 0 0 1.365-1.633c.359-.6.538-1.215.538-1.84 0-.903-.331-1.615-.994-2.136-.664-.521-1.495-.955-2.494-1.302-1-.349-2.079-.65-3.235-.904a26.238 26.238 0 0 1-3.238-.92c-1-.359-1.83-.804-2.493-1.337-.664-.533-.994-1.251-.994-2.154 0-.995.196-2.009.59-3.039a9.958 9.958 0 0 1 1.6-2.778 8.738 8.738 0 0 1 2.344-2.016A5.474 5.474 0 0 1 51.348 9c.628 0 1.185.116 1.668.347.482.232.894.55 1.23.954.337.406.594.876.775 1.407.181.534.272 1.112.272 1.738 0 .416-.013.81-.035 1.18-.024.37-.061.735-.12 1.095-.054.358-.122.73-.201 1.11-.078.382-.174.805-.287 1.268a.156.156 0 0 1-.117.087.75.75 0 0 1-.151.018c-.406 0-.652-.185-.742-.556-.09-.37-.119-.84-.084-1.406.035-.569.073-1.176.117-1.824a6.924 6.924 0 0 0-.1-1.824c-.113-.567-.354-1.036-.725-1.406-.372-.37-.961-.557-1.77-.557-.675 0-1.337.181-1.988.54a6.386 6.386 0 0 0-1.737 1.406 7.129 7.129 0 0 0-1.213 1.962 5.729 5.729 0 0 0-.454 2.206c0 .763.33 1.401.994 1.91.662.51 1.483.95 2.46 1.32.977.37 2.044.712 3.202 1.025 1.156.312 2.225.665 3.203 1.06.975.392 1.796.861 2.459 1.406.662.544.996 1.233.996 2.066 0 .857-.185 1.726-.557 2.605a8.787 8.787 0 0 1-1.5 2.396 8.532 8.532 0 0 1-2.14 1.772c-.799.463-1.613.695-2.444.695-.292 0-.696-.03-1.213-.087a9.57 9.57 0 0 1-1.517-.295 4.652 4.652 0 0 1-1.281-.556c-.36-.232-.54-.533-.54-.903M59.233 15.741c-.528.124-1.08.243-1.662.357-.09 0-.185-.103-.286-.306-.101-.205-.195-.6-.285-1.19.29-.092.61-.165.957-.222.346-.057.699-.13 1.058-.221a8.8 8.8 0 0 0 1.023-.323c.325-.125.6-.3.824-.527V8.173a.95.95 0 0 1 .116-.408c.078-.158.19-.3.336-.425.145-.125.32-.222.52-.29.2-.067.425-.067.67 0l.069 5.986L71 11.405c0 .249-.061.476-.185.68a2.323 2.323 0 0 1-.453.543 3.077 3.077 0 0 1-1.109.613c-.47.136-1.019.272-1.644.407-.626.137-1.26.273-1.897.41a29.56 29.56 0 0 0-1.812.441c-.57.16-1.036.317-1.395.477v17.31c0 .16-.078.285-.233.375-.159.09-.333.164-.523.22-.19.057-.374.092-.553.103-.179.01-.29.016-.334.016V15.554c-.562 0-1.104.062-1.629.187M73.064 31.975c-.472.11-.887-.14-1.241-.75-.356-.61-.651-1.436-.887-2.48a30.622 30.622 0 0 1-.564-3.563 60.703 60.703 0 0 1-.29-4.027A97.177 97.177 0 0 1 70 17.29c0-1.22.023-2.25.064-3.095 0-.067.028-.189.08-.367.056-.176.148-.343.275-.499a1.28 1.28 0 0 1 .533-.366c.225-.089.51-.076.854.033-.022.11-.054.433-.097.966a39.537 39.537 0 0 0-.096 1.997c-.021.8-.038 1.688-.049 2.663a91.69 91.69 0 0 0 .017 2.964c.02.998.064 1.98.128 2.946.065.967.162 1.832.291 2.597.129.766.284 1.393.467 1.882.183.487.414.766.694.832.537-.09 1.097-.494 1.675-1.215.582-.723 1.136-1.626 1.662-2.714a28.552 28.552 0 0 0 1.434-3.612c.43-1.32.764-2.642 1-3.963.237-1.32.359-2.574.372-3.761.01-1.188-.147-2.192-.469-3.014a.54.54 0 0 1 .177-.166c.098-.067.2-.127.307-.184.108-.054.215-.104.321-.15a.735.735 0 0 1 .228-.065c.3 0 .526.167.676.5.15.332.259.72.322 1.164.065.444.102.878.114 1.299.01.42.016.71.016.865.022.555-.049 1.343-.21 2.364a36.822 36.822 0 0 1-.708 3.363 41.677 41.677 0 0 1-1.163 3.762 24.174 24.174 0 0 1-1.594 3.562c-.604 1.088-1.259 2.004-1.967 2.747-.71.744-1.474 1.194-2.29 1.349M94.712 28.127c-.362.39-.812.872-1.354 1.444a19.634 19.634 0 0 1-1.795 1.669 12.147 12.147 0 0 1-2.1 1.392c-.742.39-1.486.585-2.233.585-.789 0-1.449-.172-1.98-.517a4.198 4.198 0 0 1-1.303-1.34 5.837 5.837 0 0 1-.726-1.824A8.992 8.992 0 0 1 83 27.577c0-.643.085-1.422.252-2.339.17-.918.42-1.88.747-2.89.328-1.009.72-2.011 1.183-3.01.464-.996 1-1.89 1.609-2.682.61-.79 1.275-1.432 1.997-1.926.722-.493 1.5-.739 2.336-.739.655 0 1.156.246 1.505.739.351.494.526 1.072.526 1.737-.34 0-.598-.04-.779-.12a3.508 3.508 0 0 1-.508-.275 6.684 6.684 0 0 0-.456-.276c-.147-.08-.356-.12-.627-.12-.54 0-1.072.219-1.59.653-.52.436-1.007 1.004-1.457 1.702-.45.7-.862 1.48-1.235 2.34a25.72 25.72 0 0 0-.965 2.596c-.27.873-.479 1.692-.626 2.459-.146.77-.22 1.405-.22 1.91 0 .481.035.974.103 1.478.066.506.201.958.405 1.36.202.401.49.733.863.997.373.263.85.395 1.44.395.744 0 1.461-.241 2.149-.723a10.253 10.253 0 0 0 1.911-1.754 14.487 14.487 0 0 0 1.558-2.218c.451-.79.801-1.496 1.049-2.115-.022-1.79-.079-3.508-.168-5.16-.092-1.65-.16-3.203-.204-4.66a59.464 59.464 0 0 1 0-4.058c.045-1.249.204-2.367.473-3.353.09-.137.22-.252.39-.345a1.5 1.5 0 0 1 .508-.172.831.831 0 0 1 .474.07c.146.069.241.219.287.447a39.94 39.94 0 0 0-.423 4.763c-.035 1.457 0 2.844.102 4.162.1 1.318.232 2.603.388 3.852.157 1.25.323 2.528.492 3.835.168 1.306.304 2.688.407 4.145.101 1.456.127 3.043.084 4.763-.024.459-.108.744-.255.86-.146.114-.315.126-.508.034-.19-.092-.371-.264-.54-.516-.17-.252-.301-.516-.39-.79-.046-.16-.096-.453-.152-.879a111.884 111.884 0 0 1-.322-2.717 73.192 73.192 0 0 0-.101-.91M99.023 12.019c.404 1.502.73 3.177.973 5.026.244 1.848.434 3.697.573 5.545.137 1.848.234 3.615.286 5.302.054 1.688.1 3.098.145 4.228 0 .462-.124.734-.368.815-.244.08-.557.086-.938.017-.277-3.372-.51-6.763-.701-10.172a117.134 117.134 0 0 0-1.02-10.171l1.05-.59zm-.382-1.144c-.254.116-.515.14-.78.069a1.224 1.224 0 0 1-.638-.38.9.9 0 0 1-.222-.658c.01-.255.186-.52.526-.798.36-.138.727-.144 1.098-.017.373.127.654.301.844.52.192.22.244.456.16.71-.084.254-.413.439-.988.554zM109.535 12.392c-.553-.046-1.072.183-1.556.685-.484.5-.928 1.174-1.33 2.02a17.4 17.4 0 0 0-1.055 2.907 31.37 31.37 0 0 0-.726 3.356 26.435 26.435 0 0 0-.33 3.358c-.036 1.092.006 2.06.12 2.907.116.846.32 1.514.607 2.003.288.491.685.714 1.194.668 1.013-.134 1.913-.668 2.696-1.603.784-.936 1.423-2.054 1.92-3.357.495-1.303.852-2.7 1.072-4.192.218-1.492.278-2.879.174-4.16-.106-1.28-.388-2.348-.85-3.206-.461-.857-1.106-1.32-1.936-1.386M103 25.82c.209-2.872.519-5.273.933-7.198.415-1.927.917-3.47 1.504-4.627.588-1.158 1.227-1.965 1.92-2.422.69-.456 1.419-.64 2.178-.551.945.045 1.735.368 2.37.968.633.602 1.123 1.392 1.47 2.373.344.98.546 2.088.604 3.323.058 1.237-.005 2.5-.19 3.791a21.752 21.752 0 0 1-.9 3.808c-.414 1.248-.938 2.361-1.572 3.341-.634.98-1.36 1.777-2.18 2.388a4.79 4.79 0 0 1-2.713.986c-.855 0-1.512-.211-1.972-.635a3.767 3.767 0 0 1-1.02-1.586 7.335 7.335 0 0 1-.382-2.022 41.633 41.633 0 0 1-.05-1.937M129.09 11.527a513.143 513.143 0 0 0 .435 12.162c.066 1.421.128 2.59.183 3.506.056.918.112 1.677.167 2.282.056.604.101 1.08.135 1.426l.083.889c.825-.045 1.688-.32 2.592-.821a14.774 14.774 0 0 0 2.657-1.93 21.192 21.192 0 0 0 2.475-2.668 26.67 26.67 0 0 0 2.057-3.019 17.275 17.275 0 0 0 1.386-2.97c.335-.96.5-1.821.5-2.582 0-.918-.206-1.751-.617-2.5a6.761 6.761 0 0 0-1.637-1.963 8.996 8.996 0 0 0-2.342-1.376 12.945 12.945 0 0 0-2.741-.772 12.624 12.624 0 0 0-2.809-.15c-.926.056-1.766.218-2.524.486zm-1.873.806a5.888 5.888 0 0 1-.82.47 2.887 2.887 0 0 1-.869.284c-.257.033-.422-.023-.502-.167-.078-.146.018-.441.285-.888a6.058 6.058 0 0 1 2.557-1.478c.994-.29 1.99-.464 2.993-.52a20.218 20.218 0 0 1 2.844.034c.89.078 1.603.14 2.138.184 1.071.269 2.028.649 2.876 1.14a9.273 9.273 0 0 1 2.192 1.746 8.208 8.208 0 0 1 1.453 2.214c.358.806.57 1.655.636 2.55 0 1.074-.201 2.193-.603 3.355a17.105 17.105 0 0 1-1.64 3.422 20.48 20.48 0 0 1-2.438 3.187 20.152 20.152 0 0 1-2.994 2.65 15.055 15.055 0 0 1-3.31 1.813c-1.147.447-2.269.671-3.36.671a73.6 73.6 0 0 0-.168-4.9c-.111-1.676-.233-3.36-.367-5.049a694.594 694.594 0 0 1-.384-5.049 83.525 83.525 0 0 1-.219-4.864l-.3-.805zM146.024 12.019c.404 1.502.73 3.177.972 5.026.244 1.848.434 3.697.573 5.545.137 1.848.234 3.615.286 5.302.054 1.688.1 3.098.145 4.228 0 .462-.124.734-.367.815-.245.08-.558.086-.94.017-.277-3.372-.51-6.763-.7-10.172a117.144 117.144 0 0 0-1.02-10.171l1.051-.59zm-.383-1.144c-.254.116-.515.14-.78.069a1.212 1.212 0 0 1-.636-.38.897.897 0 0 1-.224-.658c.01-.255.186-.52.525-.798a1.57 1.57 0 0 1 1.1-.017c.372.127.653.301.843.52.193.22.244.456.16.71-.084.254-.415.439-.988.554zM155.566 32a22.52 22.52 0 0 1-2.02-.218 9.67 9.67 0 0 1-1.724-.418c-.508-.178-.922-.402-1.242-.67-.32-.268-.514-.59-.58-.97.399 0 .812.05 1.242.15.431.102.862.219 1.291.352.432.133.875.25 1.326.352.454.1.911.15 1.377.15.44 0 .915-.061 1.424-.185.508-.122.971-.311 1.392-.567a3.458 3.458 0 0 0 1.044-.988c.275-.402.412-.88.412-1.44 0-.736-.215-1.438-.645-2.107a11.932 11.932 0 0 0-1.623-1.975 40.772 40.772 0 0 0-2.104-1.941 29.874 29.874 0 0 1-2.104-1.99 11.492 11.492 0 0 1-1.624-2.126 4.582 4.582 0 0 1-.646-2.343c0-.602.177-1.155.531-1.657a4.94 4.94 0 0 1 1.307-1.272 7.021 7.021 0 0 1 1.69-.82c.607-.2 1.176-.3 1.706-.3.398-.045.808 0 1.228.134.419.133.782.351 1.092.652.31.3.536.681.68 1.137.143.458.137.977-.016 1.556-.066.38-.156.649-.266.805-.11.155-.226.223-.349.2-.12-.023-.253-.1-.397-.235a5.758 5.758 0 0 1-.447-.469c0-.267-.005-.545-.017-.835a3.438 3.438 0 0 0-.115-.788 1.148 1.148 0 0 0-.349-.567c-.165-.146-.412-.219-.745-.219-.419 0-.862.067-1.326.201-.462.134-.881.33-1.258.585-.375.258-.69.57-.944.939a2.209 2.209 0 0 0-.381 1.288c-.111.423.05.926.48 1.506.431.58.988 1.216 1.673 1.907a74.126 74.126 0 0 0 2.252 2.174 25.83 25.83 0 0 1 2.222 2.327c.662.793 1.187 1.585 1.575 2.376.384.793.5 1.557.346 2.293-.067.803-.25 1.467-.547 1.992-.297.524-.69.937-1.176 1.237-.487.301-1.039.508-1.656.62-.621.11-1.28.167-1.989.167M169.359 13.009c-.447 0-.91.295-1.39.885-.48.59-.944 1.337-1.392 2.238-.448.904-.871 1.895-1.265 2.976-.396 1.08-.73 2.129-1.008 3.141a26.306 26.306 0 0 0-.608 2.707c-.127.79-.16 1.353-.097 1.687.341.023.795-.278 1.361-.902.565-.624 1.146-1.42 1.743-2.39a30.46 30.46 0 0 0 1.696-3.174 24.78 24.78 0 0 0 1.265-3.258c.31-1.024.459-1.9.449-2.624-.011-.723-.263-1.153-.754-1.286M162 27.913c0-.757.095-1.738.286-2.94a39.959 39.959 0 0 1 2.097-7.753c.502-1.315 1.058-2.467 1.665-3.46.608-.99 1.264-1.743 1.968-2.255.705-.512 1.45-.635 2.24-.367.15-.022.368.117.656.417.29.3.517.768.688 1.404.171.634.224 1.437.161 2.405-.066.97-.358 2.129-.882 3.477-.522 1.347-1.332 2.878-2.43 4.594-1.1 1.715-2.61 3.63-4.53 5.748.385.624.844.992 1.378 1.103.531.112 1.097.056 1.695-.168.597-.222 1.195-.573 1.793-1.052a17.237 17.237 0 0 0 1.663-1.52c.513-.536.955-1.065 1.327-1.589.373-.522.637-.94.786-1.252.36.334.5.752.414 1.252-.085.502-.313 1.031-.687 1.588a9.563 9.563 0 0 1-1.44 1.654 14.118 14.118 0 0 1-1.84 1.454c-.64.423-1.27.763-1.89 1.02-.617.256-1.14.362-1.566.317-.448 0-.887-.117-1.313-.351a4.127 4.127 0 0 1-1.136-.92 4.696 4.696 0 0 1-.8-1.302 3.896 3.896 0 0 1-.303-1.504M176.663 22.031c-.024-.446.017-1.035.12-1.77.1-.735.264-1.521.49-2.356.226-.834.515-1.67.866-2.505a12.5 12.5 0 0 1 1.221-2.255c.465-.668.979-1.203 1.544-1.604a2.825 2.825 0 0 1 1.867-.535c.791 0 1.447.251 1.968.752a5.56 5.56 0 0 1 1.238 1.804c.306.703.531 1.431.678 2.188.148.758.256 1.382.321 1.87.07.314.114.825.138 1.539.023.712.044 1.52.067 2.42.022.904.051 1.85.085 2.841.034.99.078 1.926.136 2.805.055.881.129 1.65.221 2.306.09.657.215 1.109.373 1.353.024.2-.068.396-.271.584-.204.19-.441.334-.714.435-.27.1-.532.123-.78.067-.249-.057-.407-.24-.474-.552-.25-1.001-.408-2.17-.476-3.507a119.823 119.823 0 0 1-.136-4.126 556.57 556.57 0 0 1-.05-4.143 30.227 30.227 0 0 0-.22-3.607c-.136-1.058-.368-1.893-.696-2.506-.328-.612-.798-.885-1.408-.82-.68.046-1.285.358-1.815.937-.533.579-1 1.33-1.408 2.254-.409.924-.754 1.972-1.037 3.14a51.992 51.992 0 0 0-.728 3.576 77.396 77.396 0 0 0-.51 3.524 109.075 109.075 0 0 0-.32 3.007c-.082.869-.15 1.543-.204 2.021-.06.479-.11.673-.153.585-.069 0-.193.005-.374.016a3.999 3.999 0 0 1-.543 0 1.442 1.442 0 0 1-.474-.1c-.137-.055-.205-.16-.205-.317V14.916c0-.513.13-.986.391-1.421.26-.433.684-.651 1.272-.651v9.187z"/>
        <g transform="translate(189 11)">
            <mask id="b" fill="#fff">
                <use xlink:href="#a"/>
            </mask>
            <path fill="#231F20" d="M6.438 1.834c-.53-.046-1.026.188-1.49.701-.462.513-.886 1.202-1.271 2.068A18.59 18.59 0 0 0 2.67 7.578a33.819 33.819 0 0 0-.696 3.434 28.798 28.798 0 0 0-.314 3.436c-.034 1.118.004 2.109.115 2.975.11.865.304 1.55.58 2.05.274.503.655.73 1.14.683.97-.137 1.83-.683 2.579-1.64.75-.957 1.361-2.102 1.835-3.436a21.507 21.507 0 0 0 1.025-4.29c.21-1.526.264-2.945.165-4.255-.1-1.31-.37-2.404-.81-3.282-.441-.877-1.058-1.35-1.851-1.419M.189 15.576c.198-2.94.496-5.396.893-7.366.396-1.972.876-3.55 1.437-4.735C3.08 2.29 3.693 1.465 4.355.997 5.015.53 5.71.34 6.438.432c.902.046 1.657.377 2.264.991.607.616 1.075 1.425 1.405 2.428.331 1.003.525 2.137.578 3.401a21.944 21.944 0 0 1-.181 3.88 23.583 23.583 0 0 1-.86 3.896c-.396 1.278-.897 2.417-1.503 3.42-.607 1.003-1.303 1.818-2.084 2.444-.784.627-1.648.963-2.595 1.008-.816 0-1.444-.216-1.886-.65-.44-.432-.765-.973-.973-1.623a7.846 7.846 0 0 1-.365-2.068c-.034-.73-.049-1.39-.049-1.983" mask="url(#b)"/>
        </g>
        <path fill="#231F20" d="M183.266 8.96a3.971 3.971 0 0 1-.5.223c.17-.043.336-.117.5-.223m-7.143.433l.341-.315c.228-.202.375-.33.444-.388.068-.057.213-.163.432-.322.22-.157.395-.265.53-.321.133-.058.304-.114.51-.172.207-.057.4-.08.578-.073.3.018.64.12 1.022.304a6.54 6.54 0 0 1 .792.283c.153.065.258.107.314.124.488.183.906.219 1.254.105.632-.201 1.2-.565 1.703-1.091.009-.01.017-.017.024-.027l.05-.078a.69.69 0 0 1 .06-.106c.138-.219.3-.323.487-.316a.35.35 0 0 1 .304.211c.032.07.04.148.024.236 0 .08-.024.171-.073.277-.065.175-.17.382-.317.618-.364.588-.697.987-.997 1.195-.3.203-.618.32-.955.348a2.152 2.152 0 0 1-.869-.07 4.67 4.67 0 0 1-.815-.369l-.548-.315a8.222 8.222 0 0 0-.548-.316l-.098-.053a2.336 2.336 0 0 0-.242-.039c-.3-.035-.653.049-1.059.25-.121.06-.309.161-.559.302l-.584.329c-.14.06-.26.035-.366-.08l-.45.396a.276.276 0 0 1-.225.079.297.297 0 0 1-.212-.126.345.345 0 0 1-.073-.25.325.325 0 0 1 .121-.23"/>
        <g>
            <mask id="d" fill="#fff">
                <use xlink:href="#c"/>
            </mask>
            <path fill="#231F20" d="M9.985 9.94c-1.304.625-3.16 2.587-1.435 3.84 1.39 1.01 3.142 1.74 4.657 2.551.031.015.061.03.091.047-.174-.922-.387-1.831-.722-2.673-.354-.886-1.128-4.464-2.59-3.766zm16.736 19.603c1.304-.626 3.16-2.587 1.435-3.84-1.39-1.01-3.142-1.741-4.657-2.551-.03-.016-.061-.03-.091-.047.174.921.386 1.83.722 2.673.355.885 1.129 4.463 2.591 3.765zM18.03 18.486c.926.417 1.85.836 2.772 1.263-.234-1.667-.379-3.343-.382-4.985-.002-1.026 1.473-1.177 1.593-.136.23 1.968.543 3.938.93 5.88.02.093.036.19.054.284.857.418 1.707.846 2.545 1.292 2.042 1.087 5.92 2.207 5.416 5.314-.31 1.926-2.756 4.98-5.017 4.38-1.312-.348-2.187-1.278-2.738-2.517-.583-1.305-1.053-2.776-1.38-4.165a70.244 70.244 0 0 1-.635-3c-.812-.336-1.632-.66-2.42-1.03a59.104 59.104 0 0 0-1.258-.57l-1.604-.763c.234 1.667.379 3.343.382 4.985.002 1.027-1.473 1.177-1.593.136a74.245 74.245 0 0 0-.93-5.879c-.02-.093-.036-.19-.055-.284a82.298 82.298 0 0 1-2.545-1.293c-2.04-1.086-5.919-2.206-5.415-5.314.31-1.926 2.756-4.98 5.018-4.38 1.312.348 2.186 1.278 2.737 2.517.583 1.305 1.053 2.777 1.38 4.166.231.984.444 1.986.635 3l2.51 1.099zM18.812.004C8.422.004 0 8.477 0 18.93 0 29.38 8.422 37.854 18.812 37.854s18.812-8.473 18.812-18.924C37.624 8.477 29.202.004 18.812.004z" mask="url(#d)"/>
        </g>
    </g>
</svg>
